<mxfile host="app.diagrams.net" modified="2023-12-05T08:26:19.941Z" agent="Mozilla/5.0 (Windows NT 10.0; Win64; x64) AppleWebKit/537.36 (KHTML, like Gecko) Chrome/119.0.0.0 Safari/537.36" etag="PWTK5hnXpp1VLxW9n-hm" version="22.1.5" type="github">
  <diagram id="R2lEEEUBdFMjLlhIrx00" name="Page-1">
    <mxGraphModel dx="2496" dy="2308" grid="1" gridSize="10" guides="1" tooltips="1" connect="1" arrows="1" fold="1" page="1" pageScale="1" pageWidth="850" pageHeight="1100" math="0" shadow="0" extFonts="Permanent Marker^https://fonts.googleapis.com/css?family=Permanent+Marker">
      <root>
        <mxCell id="0" />
        <mxCell id="1" parent="0" />
        <mxCell id="sVzuglEd-QTHvD8uHTBj-1" value="Collection" style="rounded=0;whiteSpace=wrap;html=1;" vertex="1" parent="1">
          <mxGeometry x="140" y="150" width="120" height="60" as="geometry" />
        </mxCell>
        <mxCell id="sVzuglEd-QTHvD8uHTBj-2" value="&lt;u&gt;Name&lt;/u&gt;" style="ellipse;whiteSpace=wrap;html=1;" vertex="1" parent="1">
          <mxGeometry x="310" y="80" width="90" height="50" as="geometry" />
        </mxCell>
        <mxCell id="sVzuglEd-QTHvD8uHTBj-3" value="Type" style="ellipse;whiteSpace=wrap;html=1;" vertex="1" parent="1">
          <mxGeometry x="210" y="40" width="90" height="50" as="geometry" />
        </mxCell>
        <mxCell id="sVzuglEd-QTHvD8uHTBj-4" value="" style="endArrow=none;html=1;rounded=0;exitX=1;exitY=0;exitDx=0;exitDy=0;entryX=0.5;entryY=1;entryDx=0;entryDy=0;" edge="1" parent="1" source="sVzuglEd-QTHvD8uHTBj-1" target="sVzuglEd-QTHvD8uHTBj-2">
          <mxGeometry width="50" height="50" relative="1" as="geometry">
            <mxPoint x="200" y="180" as="sourcePoint" />
            <mxPoint x="250" y="130" as="targetPoint" />
          </mxGeometry>
        </mxCell>
        <mxCell id="sVzuglEd-QTHvD8uHTBj-6" value="Contact_details" style="ellipse;whiteSpace=wrap;html=1;" vertex="1" parent="1">
          <mxGeometry x="50" y="80" width="90" height="50" as="geometry" />
        </mxCell>
        <mxCell id="sVzuglEd-QTHvD8uHTBj-7" value="" style="endArrow=none;html=1;rounded=0;exitX=0;exitY=0;exitDx=0;exitDy=0;entryX=0.5;entryY=1;entryDx=0;entryDy=0;" edge="1" parent="1" source="sVzuglEd-QTHvD8uHTBj-1" target="sVzuglEd-QTHvD8uHTBj-6">
          <mxGeometry width="50" height="50" relative="1" as="geometry">
            <mxPoint x="200" y="180" as="sourcePoint" />
            <mxPoint x="250" y="130" as="targetPoint" />
          </mxGeometry>
        </mxCell>
        <mxCell id="sVzuglEd-QTHvD8uHTBj-8" value="" style="endArrow=none;html=1;rounded=0;exitX=0.5;exitY=0;exitDx=0;exitDy=0;entryX=0.5;entryY=1;entryDx=0;entryDy=0;" edge="1" parent="1" source="sVzuglEd-QTHvD8uHTBj-1" target="sVzuglEd-QTHvD8uHTBj-3">
          <mxGeometry width="50" height="50" relative="1" as="geometry">
            <mxPoint x="200" y="180" as="sourcePoint" />
            <mxPoint x="250" y="130" as="targetPoint" />
          </mxGeometry>
        </mxCell>
        <mxCell id="sVzuglEd-QTHvD8uHTBj-9" value="Contact_person" style="ellipse;whiteSpace=wrap;html=1;" vertex="1" parent="1">
          <mxGeometry x="30" y="10" width="90" height="50" as="geometry" />
        </mxCell>
        <mxCell id="sVzuglEd-QTHvD8uHTBj-10" value="" style="endArrow=none;html=1;rounded=0;entryX=0.5;entryY=0;entryDx=0;entryDy=0;exitX=0.5;exitY=1;exitDx=0;exitDy=0;" edge="1" parent="1" source="sVzuglEd-QTHvD8uHTBj-9" target="sVzuglEd-QTHvD8uHTBj-6">
          <mxGeometry width="50" height="50" relative="1" as="geometry">
            <mxPoint x="200" y="180" as="sourcePoint" />
            <mxPoint x="250" y="130" as="targetPoint" />
          </mxGeometry>
        </mxCell>
        <mxCell id="sVzuglEd-QTHvD8uHTBj-11" value="Borrowed" style="rounded=0;whiteSpace=wrap;html=1;" vertex="1" parent="1">
          <mxGeometry x="140" y="550" width="120" height="60" as="geometry" />
        </mxCell>
        <mxCell id="sVzuglEd-QTHvD8uHTBj-16" value="Borrowed_From" style="rhombus;whiteSpace=wrap;html=1;" vertex="1" parent="1">
          <mxGeometry x="120" y="340" width="160" height="80" as="geometry" />
        </mxCell>
        <mxCell id="sVzuglEd-QTHvD8uHTBj-17" value="" style="endArrow=none;html=1;rounded=0;entryX=0.382;entryY=0.887;entryDx=0;entryDy=0;entryPerimeter=0;exitX=0.338;exitY=0.019;exitDx=0;exitDy=0;exitPerimeter=0;" edge="1" parent="1" source="sVzuglEd-QTHvD8uHTBj-11" target="sVzuglEd-QTHvD8uHTBj-16">
          <mxGeometry width="50" height="50" relative="1" as="geometry">
            <mxPoint x="181" y="570" as="sourcePoint" />
            <mxPoint x="170" y="430" as="targetPoint" />
          </mxGeometry>
        </mxCell>
        <mxCell id="sVzuglEd-QTHvD8uHTBj-18" value="" style="endArrow=none;html=1;rounded=0;entryX=0.382;entryY=0.887;entryDx=0;entryDy=0;entryPerimeter=0;exitX=0.663;exitY=0.002;exitDx=0;exitDy=0;exitPerimeter=0;" edge="1" parent="1" source="sVzuglEd-QTHvD8uHTBj-11">
          <mxGeometry width="50" height="50" relative="1" as="geometry">
            <mxPoint x="220" y="570" as="sourcePoint" />
            <mxPoint x="220" y="411" as="targetPoint" />
          </mxGeometry>
        </mxCell>
        <mxCell id="sVzuglEd-QTHvD8uHTBj-19" value="" style="endArrow=none;html=1;rounded=0;exitX=0.5;exitY=0;exitDx=0;exitDy=0;entryX=0.5;entryY=1;entryDx=0;entryDy=0;" edge="1" parent="1" source="sVzuglEd-QTHvD8uHTBj-16" target="sVzuglEd-QTHvD8uHTBj-1">
          <mxGeometry width="50" height="50" relative="1" as="geometry">
            <mxPoint x="150" y="290" as="sourcePoint" />
            <mxPoint x="200" y="240" as="targetPoint" />
          </mxGeometry>
        </mxCell>
        <mxCell id="sVzuglEd-QTHvD8uHTBj-20" value="1" style="edgeLabel;html=1;align=center;verticalAlign=middle;resizable=0;points=[];" vertex="1" connectable="0" parent="sVzuglEd-QTHvD8uHTBj-19">
          <mxGeometry x="-0.7217" relative="1" as="geometry">
            <mxPoint as="offset" />
          </mxGeometry>
        </mxCell>
        <mxCell id="sVzuglEd-QTHvD8uHTBj-21" value="N" style="text;html=1;align=center;verticalAlign=middle;resizable=0;points=[];autosize=1;strokeColor=none;fillColor=none;" vertex="1" parent="1">
          <mxGeometry x="185" y="420" width="30" height="30" as="geometry" />
        </mxCell>
        <mxCell id="sVzuglEd-QTHvD8uHTBj-22" value="Date_returned" style="ellipse;whiteSpace=wrap;html=1;" vertex="1" parent="1">
          <mxGeometry x="10" y="355" width="90" height="50" as="geometry" />
        </mxCell>
        <mxCell id="sVzuglEd-QTHvD8uHTBj-23" value="&lt;u&gt;Collection&lt;/u&gt;" style="ellipse;whiteSpace=wrap;html=1;" vertex="1" parent="1">
          <mxGeometry x="10" y="420" width="90" height="50" as="geometry" />
        </mxCell>
        <mxCell id="sVzuglEd-QTHvD8uHTBj-24" value="Date_borrowed" style="ellipse;whiteSpace=wrap;html=1;" vertex="1" parent="1">
          <mxGeometry x="10" y="290" width="90" height="50" as="geometry" />
        </mxCell>
        <mxCell id="sVzuglEd-QTHvD8uHTBj-25" value="" style="endArrow=none;html=1;rounded=0;exitX=1;exitY=0.5;exitDx=0;exitDy=0;entryX=0;entryY=0.5;entryDx=0;entryDy=0;" edge="1" parent="1" source="sVzuglEd-QTHvD8uHTBj-22" target="sVzuglEd-QTHvD8uHTBj-16">
          <mxGeometry width="50" height="50" relative="1" as="geometry">
            <mxPoint x="120" y="390" as="sourcePoint" />
            <mxPoint x="170" y="340" as="targetPoint" />
          </mxGeometry>
        </mxCell>
        <mxCell id="sVzuglEd-QTHvD8uHTBj-26" value="" style="endArrow=none;html=1;rounded=0;entryX=1;entryY=1;entryDx=0;entryDy=0;" edge="1" parent="1" target="sVzuglEd-QTHvD8uHTBj-24">
          <mxGeometry width="50" height="50" relative="1" as="geometry">
            <mxPoint x="120" y="380" as="sourcePoint" />
            <mxPoint x="160" y="350" as="targetPoint" />
          </mxGeometry>
        </mxCell>
        <mxCell id="sVzuglEd-QTHvD8uHTBj-27" value="" style="endArrow=none;html=1;rounded=0;entryX=0;entryY=0.5;entryDx=0;entryDy=0;exitX=1;exitY=0;exitDx=0;exitDy=0;" edge="1" parent="1" source="sVzuglEd-QTHvD8uHTBj-23" target="sVzuglEd-QTHvD8uHTBj-16">
          <mxGeometry width="50" height="50" relative="1" as="geometry">
            <mxPoint x="110" y="400" as="sourcePoint" />
            <mxPoint x="160" y="350" as="targetPoint" />
          </mxGeometry>
        </mxCell>
        <mxCell id="sVzuglEd-QTHvD8uHTBj-28" value="Artist" style="rounded=0;whiteSpace=wrap;html=1;" vertex="1" parent="1">
          <mxGeometry x="570" y="150" width="120" height="60" as="geometry" />
        </mxCell>
        <mxCell id="sVzuglEd-QTHvD8uHTBj-29" value="Date_of_birth" style="ellipse;whiteSpace=wrap;html=1;" vertex="1" parent="1">
          <mxGeometry x="425" y="155" width="90" height="50" as="geometry" />
        </mxCell>
        <mxCell id="sVzuglEd-QTHvD8uHTBj-30" value="Main_style" style="ellipse;whiteSpace=wrap;html=1;" vertex="1" parent="1">
          <mxGeometry x="450" y="80" width="90" height="50" as="geometry" />
        </mxCell>
        <mxCell id="sVzuglEd-QTHvD8uHTBj-31" value="Description" style="ellipse;whiteSpace=wrap;html=1;" vertex="1" parent="1">
          <mxGeometry x="515" y="20" width="90" height="50" as="geometry" />
        </mxCell>
        <mxCell id="sVzuglEd-QTHvD8uHTBj-32" value="&lt;u&gt;Name&lt;/u&gt;" style="ellipse;whiteSpace=wrap;html=1;" vertex="1" parent="1">
          <mxGeometry x="660" y="20" width="90" height="50" as="geometry" />
        </mxCell>
        <mxCell id="sVzuglEd-QTHvD8uHTBj-33" value="&lt;u&gt;Epoch&lt;/u&gt;" style="ellipse;whiteSpace=wrap;html=1;" vertex="1" parent="1">
          <mxGeometry x="720" y="80" width="90" height="50" as="geometry" />
        </mxCell>
        <mxCell id="sVzuglEd-QTHvD8uHTBj-34" value="Date_deceased" style="ellipse;whiteSpace=wrap;html=1;" vertex="1" parent="1">
          <mxGeometry x="585" y="-40" width="90" height="50" as="geometry" />
        </mxCell>
        <mxCell id="sVzuglEd-QTHvD8uHTBj-35" value="" style="endArrow=none;html=1;rounded=0;exitX=0;exitY=0.5;exitDx=0;exitDy=0;entryX=1;entryY=0.5;entryDx=0;entryDy=0;" edge="1" parent="1" source="sVzuglEd-QTHvD8uHTBj-28" target="sVzuglEd-QTHvD8uHTBj-29">
          <mxGeometry width="50" height="50" relative="1" as="geometry">
            <mxPoint x="520" y="120" as="sourcePoint" />
            <mxPoint x="570" y="70" as="targetPoint" />
          </mxGeometry>
        </mxCell>
        <mxCell id="sVzuglEd-QTHvD8uHTBj-36" value="" style="endArrow=none;html=1;rounded=0;exitX=0;exitY=0.5;exitDx=0;exitDy=0;entryX=0.5;entryY=1;entryDx=0;entryDy=0;" edge="1" parent="1" source="sVzuglEd-QTHvD8uHTBj-28" target="sVzuglEd-QTHvD8uHTBj-30">
          <mxGeometry width="50" height="50" relative="1" as="geometry">
            <mxPoint x="520" y="120" as="sourcePoint" />
            <mxPoint x="570" y="70" as="targetPoint" />
          </mxGeometry>
        </mxCell>
        <mxCell id="sVzuglEd-QTHvD8uHTBj-37" value="" style="endArrow=none;html=1;rounded=0;exitX=0.5;exitY=0;exitDx=0;exitDy=0;" edge="1" parent="1" source="sVzuglEd-QTHvD8uHTBj-28">
          <mxGeometry width="50" height="50" relative="1" as="geometry">
            <mxPoint x="520" y="120" as="sourcePoint" />
            <mxPoint x="560" y="70" as="targetPoint" />
          </mxGeometry>
        </mxCell>
        <mxCell id="sVzuglEd-QTHvD8uHTBj-38" value="" style="endArrow=none;html=1;rounded=0;exitX=0.5;exitY=0;exitDx=0;exitDy=0;entryX=0.5;entryY=1;entryDx=0;entryDy=0;" edge="1" parent="1" source="sVzuglEd-QTHvD8uHTBj-28" target="sVzuglEd-QTHvD8uHTBj-34">
          <mxGeometry width="50" height="50" relative="1" as="geometry">
            <mxPoint x="520" y="120" as="sourcePoint" />
            <mxPoint x="570" y="70" as="targetPoint" />
          </mxGeometry>
        </mxCell>
        <mxCell id="sVzuglEd-QTHvD8uHTBj-39" value="" style="endArrow=none;html=1;rounded=0;exitX=0.5;exitY=0;exitDx=0;exitDy=0;entryX=0.5;entryY=1;entryDx=0;entryDy=0;" edge="1" parent="1" source="sVzuglEd-QTHvD8uHTBj-28" target="sVzuglEd-QTHvD8uHTBj-32">
          <mxGeometry width="50" height="50" relative="1" as="geometry">
            <mxPoint x="520" y="120" as="sourcePoint" />
            <mxPoint x="570" y="70" as="targetPoint" />
          </mxGeometry>
        </mxCell>
        <mxCell id="sVzuglEd-QTHvD8uHTBj-40" value="" style="endArrow=none;html=1;rounded=0;exitX=1;exitY=0.5;exitDx=0;exitDy=0;entryX=0.5;entryY=1;entryDx=0;entryDy=0;" edge="1" parent="1" source="sVzuglEd-QTHvD8uHTBj-28" target="sVzuglEd-QTHvD8uHTBj-33">
          <mxGeometry width="50" height="50" relative="1" as="geometry">
            <mxPoint x="520" y="120" as="sourcePoint" />
            <mxPoint x="570" y="70" as="targetPoint" />
          </mxGeometry>
        </mxCell>
        <mxCell id="sVzuglEd-QTHvD8uHTBj-41" value="Birth_country" style="ellipse;whiteSpace=wrap;html=1;" vertex="1" parent="1">
          <mxGeometry x="750" y="155" width="90" height="50" as="geometry" />
        </mxCell>
        <mxCell id="sVzuglEd-QTHvD8uHTBj-42" value="" style="endArrow=none;html=1;rounded=0;exitX=1;exitY=0.5;exitDx=0;exitDy=0;entryX=0;entryY=0.5;entryDx=0;entryDy=0;" edge="1" parent="1" source="sVzuglEd-QTHvD8uHTBj-28" target="sVzuglEd-QTHvD8uHTBj-41">
          <mxGeometry width="50" height="50" relative="1" as="geometry">
            <mxPoint x="670" y="130" as="sourcePoint" />
            <mxPoint x="720" y="80" as="targetPoint" />
          </mxGeometry>
        </mxCell>
        <mxCell id="sVzuglEd-QTHvD8uHTBj-43" value="Shown_In" style="rhombus;whiteSpace=wrap;html=1;" vertex="1" parent="1">
          <mxGeometry x="780" y="355" width="160" height="80" as="geometry" />
        </mxCell>
        <mxCell id="sVzuglEd-QTHvD8uHTBj-45" value="" style="endArrow=none;html=1;rounded=0;entryX=0.371;entryY=0.992;entryDx=0;entryDy=0;entryPerimeter=0;exitX=0.403;exitY=0.115;exitDx=0;exitDy=0;exitPerimeter=0;" edge="1" parent="1">
          <mxGeometry width="50" height="50" relative="1" as="geometry">
            <mxPoint x="613.82" y="349.67999999999984" as="sourcePoint" />
            <mxPoint x="613.86" y="210" as="targetPoint" />
          </mxGeometry>
        </mxCell>
        <mxCell id="sVzuglEd-QTHvD8uHTBj-47" value="" style="endArrow=none;html=1;rounded=0;entryX=0.371;entryY=0.992;entryDx=0;entryDy=0;entryPerimeter=0;exitX=0.403;exitY=0.115;exitDx=0;exitDy=0;exitPerimeter=0;" edge="1" parent="1">
          <mxGeometry width="50" height="50" relative="1" as="geometry">
            <mxPoint x="650" y="349" as="sourcePoint" />
            <mxPoint x="651" y="210" as="targetPoint" />
          </mxGeometry>
        </mxCell>
        <mxCell id="sVzuglEd-QTHvD8uHTBj-48" value="1" style="text;html=1;align=center;verticalAlign=middle;resizable=0;points=[];autosize=1;strokeColor=none;fillColor=none;" vertex="1" parent="1">
          <mxGeometry x="615" y="310" width="30" height="30" as="geometry" />
        </mxCell>
        <mxCell id="sVzuglEd-QTHvD8uHTBj-49" value="" style="endArrow=none;html=1;rounded=0;entryX=0.371;entryY=0.992;entryDx=0;entryDy=0;entryPerimeter=0;exitX=0.403;exitY=0.115;exitDx=0;exitDy=0;exitPerimeter=0;" edge="1" parent="1">
          <mxGeometry width="50" height="50" relative="1" as="geometry">
            <mxPoint x="615" y="550" as="sourcePoint" />
            <mxPoint x="616" y="411" as="targetPoint" />
          </mxGeometry>
        </mxCell>
        <mxCell id="sVzuglEd-QTHvD8uHTBj-50" value="" style="endArrow=none;html=1;rounded=0;entryX=0.371;entryY=0.992;entryDx=0;entryDy=0;entryPerimeter=0;exitX=0.403;exitY=0.115;exitDx=0;exitDy=0;exitPerimeter=0;" edge="1" parent="1">
          <mxGeometry width="50" height="50" relative="1" as="geometry">
            <mxPoint x="645" y="550" as="sourcePoint" />
            <mxPoint x="646" y="411" as="targetPoint" />
          </mxGeometry>
        </mxCell>
        <mxCell id="sVzuglEd-QTHvD8uHTBj-51" value="N" style="text;html=1;align=center;verticalAlign=middle;resizable=0;points=[];autosize=1;strokeColor=none;fillColor=none;" vertex="1" parent="1">
          <mxGeometry x="615" y="428" width="30" height="30" as="geometry" />
        </mxCell>
        <mxCell id="sVzuglEd-QTHvD8uHTBj-52" value="Art_Object" style="rounded=0;whiteSpace=wrap;html=1;" vertex="1" parent="1">
          <mxGeometry x="570" y="550" width="120" height="60" as="geometry" />
        </mxCell>
        <mxCell id="sVzuglEd-QTHvD8uHTBj-53" value="&lt;u&gt;ID_number&lt;/u&gt;" style="ellipse;whiteSpace=wrap;html=1;" vertex="1" parent="1">
          <mxGeometry x="410" y="490" width="90" height="50" as="geometry" />
        </mxCell>
        <mxCell id="sVzuglEd-QTHvD8uHTBj-54" value="" style="endArrow=none;html=1;rounded=0;entryX=0;entryY=0;entryDx=0;entryDy=0;exitX=1;exitY=0.5;exitDx=0;exitDy=0;" edge="1" parent="1" source="sVzuglEd-QTHvD8uHTBj-53" target="sVzuglEd-QTHvD8uHTBj-52">
          <mxGeometry width="50" height="50" relative="1" as="geometry">
            <mxPoint x="490" y="540" as="sourcePoint" />
            <mxPoint x="500" y="480" as="targetPoint" />
          </mxGeometry>
        </mxCell>
        <mxCell id="sVzuglEd-QTHvD8uHTBj-55" value="Artist" style="ellipse;whiteSpace=wrap;html=1;" vertex="1" parent="1">
          <mxGeometry x="770" y="490" width="90" height="50" as="geometry" />
        </mxCell>
        <mxCell id="sVzuglEd-QTHvD8uHTBj-56" value="" style="endArrow=none;html=1;rounded=0;entryX=1;entryY=0;entryDx=0;entryDy=0;exitX=0;exitY=0.5;exitDx=0;exitDy=0;" edge="1" parent="1" source="sVzuglEd-QTHvD8uHTBj-55" target="sVzuglEd-QTHvD8uHTBj-52">
          <mxGeometry width="50" height="50" relative="1" as="geometry">
            <mxPoint x="630" y="620" as="sourcePoint" />
            <mxPoint x="680" y="570" as="targetPoint" />
          </mxGeometry>
        </mxCell>
        <mxCell id="sVzuglEd-QTHvD8uHTBj-57" value="Description" style="ellipse;whiteSpace=wrap;html=1;" vertex="1" parent="1">
          <mxGeometry x="410" y="610" width="90" height="50" as="geometry" />
        </mxCell>
        <mxCell id="sVzuglEd-QTHvD8uHTBj-58" value="Culture" style="ellipse;whiteSpace=wrap;html=1;" vertex="1" parent="1">
          <mxGeometry x="470" y="660" width="90" height="50" as="geometry" />
        </mxCell>
        <mxCell id="sVzuglEd-QTHvD8uHTBj-59" value="Epoch" style="ellipse;whiteSpace=wrap;html=1;" vertex="1" parent="1">
          <mxGeometry x="750" y="610" width="90" height="50" as="geometry" />
        </mxCell>
        <mxCell id="sVzuglEd-QTHvD8uHTBj-60" value="Title" style="ellipse;whiteSpace=wrap;html=1;" vertex="1" parent="1">
          <mxGeometry x="680" y="660" width="90" height="50" as="geometry" />
        </mxCell>
        <mxCell id="sVzuglEd-QTHvD8uHTBj-61" value="" style="endArrow=none;html=1;rounded=0;exitX=0;exitY=1;exitDx=0;exitDy=0;entryX=1;entryY=0;entryDx=0;entryDy=0;" edge="1" parent="1" source="sVzuglEd-QTHvD8uHTBj-52" target="sVzuglEd-QTHvD8uHTBj-57">
          <mxGeometry width="50" height="50" relative="1" as="geometry">
            <mxPoint x="520" y="540" as="sourcePoint" />
            <mxPoint x="570" y="490" as="targetPoint" />
          </mxGeometry>
        </mxCell>
        <mxCell id="sVzuglEd-QTHvD8uHTBj-62" value="" style="endArrow=none;html=1;rounded=0;entryX=0;entryY=1;entryDx=0;entryDy=0;exitX=0.5;exitY=0;exitDx=0;exitDy=0;" edge="1" parent="1" source="sVzuglEd-QTHvD8uHTBj-58" target="sVzuglEd-QTHvD8uHTBj-52">
          <mxGeometry width="50" height="50" relative="1" as="geometry">
            <mxPoint x="520" y="540" as="sourcePoint" />
            <mxPoint x="570" y="490" as="targetPoint" />
          </mxGeometry>
        </mxCell>
        <mxCell id="sVzuglEd-QTHvD8uHTBj-63" value="" style="endArrow=none;html=1;rounded=0;entryX=1;entryY=1;entryDx=0;entryDy=0;exitX=0;exitY=0;exitDx=0;exitDy=0;" edge="1" parent="1" source="sVzuglEd-QTHvD8uHTBj-59" target="sVzuglEd-QTHvD8uHTBj-52">
          <mxGeometry width="50" height="50" relative="1" as="geometry">
            <mxPoint x="520" y="540" as="sourcePoint" />
            <mxPoint x="570" y="490" as="targetPoint" />
          </mxGeometry>
        </mxCell>
        <mxCell id="sVzuglEd-QTHvD8uHTBj-64" value="" style="endArrow=none;html=1;rounded=0;entryX=1;entryY=1;entryDx=0;entryDy=0;exitX=0.5;exitY=0;exitDx=0;exitDy=0;" edge="1" parent="1" source="sVzuglEd-QTHvD8uHTBj-60" target="sVzuglEd-QTHvD8uHTBj-52">
          <mxGeometry width="50" height="50" relative="1" as="geometry">
            <mxPoint x="520" y="540" as="sourcePoint" />
            <mxPoint x="570" y="490" as="targetPoint" />
          </mxGeometry>
        </mxCell>
        <mxCell id="sVzuglEd-QTHvD8uHTBj-65" value="Year" style="ellipse;whiteSpace=wrap;html=1;" vertex="1" parent="1">
          <mxGeometry x="425" y="428" width="90" height="50" as="geometry" />
        </mxCell>
        <mxCell id="sVzuglEd-QTHvD8uHTBj-66" value="" style="endArrow=none;html=1;rounded=0;exitX=0;exitY=0;exitDx=0;exitDy=0;entryX=1;entryY=1;entryDx=0;entryDy=0;" edge="1" parent="1" source="sVzuglEd-QTHvD8uHTBj-52" target="sVzuglEd-QTHvD8uHTBj-65">
          <mxGeometry width="50" height="50" relative="1" as="geometry">
            <mxPoint x="520" y="540" as="sourcePoint" />
            <mxPoint x="570" y="490" as="targetPoint" />
          </mxGeometry>
        </mxCell>
        <mxCell id="sVzuglEd-QTHvD8uHTBj-67" value="" style="endArrow=none;html=1;rounded=0;exitX=0;exitY=0.25;exitDx=0;exitDy=0;" edge="1" parent="1" source="sVzuglEd-QTHvD8uHTBj-52">
          <mxGeometry width="50" height="50" relative="1" as="geometry">
            <mxPoint x="310" y="490" as="sourcePoint" />
            <mxPoint x="410" y="565" as="targetPoint" />
          </mxGeometry>
        </mxCell>
        <mxCell id="sVzuglEd-QTHvD8uHTBj-68" value="" style="endArrow=none;html=1;rounded=0;exitX=0;exitY=0.25;exitDx=0;exitDy=0;" edge="1" parent="1">
          <mxGeometry width="50" height="50" relative="1" as="geometry">
            <mxPoint x="570" y="575" as="sourcePoint" />
            <mxPoint x="410" y="575" as="targetPoint" />
          </mxGeometry>
        </mxCell>
        <mxCell id="sVzuglEd-QTHvD8uHTBj-69" value="" style="ellipse;whiteSpace=wrap;html=1;aspect=fixed;" vertex="1" parent="1">
          <mxGeometry x="390" y="560" width="20" height="20" as="geometry" />
        </mxCell>
        <mxCell id="sVzuglEd-QTHvD8uHTBj-72" value="" style="ellipse;whiteSpace=wrap;html=1;aspect=fixed;" vertex="1" parent="1">
          <mxGeometry x="395" y="565" width="10" height="10" as="geometry" />
        </mxCell>
        <mxCell id="sVzuglEd-QTHvD8uHTBj-73" value="" style="endArrow=none;html=1;rounded=0;exitX=0;exitY=0.5;exitDx=0;exitDy=0;entryX=1;entryY=0.5;entryDx=0;entryDy=0;" edge="1" parent="1" source="sVzuglEd-QTHvD8uHTBj-69" target="sVzuglEd-QTHvD8uHTBj-11">
          <mxGeometry width="50" height="50" relative="1" as="geometry">
            <mxPoint x="280" y="530" as="sourcePoint" />
            <mxPoint x="330" y="480" as="targetPoint" />
          </mxGeometry>
        </mxCell>
        <mxCell id="sVzuglEd-QTHvD8uHTBj-74" value="U" style="edgeLabel;html=1;align=center;verticalAlign=middle;resizable=0;points=[];rotation=90;" vertex="1" connectable="0" parent="sVzuglEd-QTHvD8uHTBj-73">
          <mxGeometry x="-0.0719" y="3" relative="1" as="geometry">
            <mxPoint y="-3" as="offset" />
          </mxGeometry>
        </mxCell>
        <mxCell id="sVzuglEd-QTHvD8uHTBj-75" value="Painted_By" style="rhombus;whiteSpace=wrap;html=1;" vertex="1" parent="1">
          <mxGeometry x="560" y="350" width="160" height="80" as="geometry" />
        </mxCell>
        <mxCell id="sVzuglEd-QTHvD8uHTBj-76" value="" style="endArrow=none;html=1;rounded=0;entryX=0;entryY=1;entryDx=0;entryDy=0;" edge="1" parent="1" target="sVzuglEd-QTHvD8uHTBj-43">
          <mxGeometry width="50" height="50" relative="1" as="geometry">
            <mxPoint x="690" y="550" as="sourcePoint" />
            <mxPoint x="740" y="460" as="targetPoint" />
          </mxGeometry>
        </mxCell>
        <mxCell id="sVzuglEd-QTHvD8uHTBj-77" value="N" style="edgeLabel;html=1;align=center;verticalAlign=middle;resizable=0;points=[];" vertex="1" connectable="0" parent="sVzuglEd-QTHvD8uHTBj-76">
          <mxGeometry x="0.8102" y="2" relative="1" as="geometry">
            <mxPoint as="offset" />
          </mxGeometry>
        </mxCell>
      </root>
    </mxGraphModel>
  </diagram>
</mxfile>
